<?xml version="1.0" encoding="UTF-8" standalone="no"?><!-- Generator: Gravit.io --><svg xmlns="http://www.w3.org/2000/svg" xmlns:xlink="http://www.w3.org/1999/xlink" style="isolation:isolate" viewBox="0 0 512 512" width="512pt" height="512pt"><defs><clipPath id="_clipPath_pNETJeqYC1SYGLLyj5XDeS0KPIhEAAIy"><rect width="512" height="512"/></clipPath></defs><g clip-path="url(#_clipPath_pNETJeqYC1SYGLLyj5XDeS0KPIhEAAIy)"><path d=" M 230.8 494.9 L 69.2 399 C 53.4 389.6 43.6 372.1 43.6 353.3 L 43.6 161.4 C 43.6 142.6 53.4 125.1 69.2 115.7 L 230.8 19.8 C 238.6 15.2 247.4 12.8 256.3 12.8 C 265.2 12.8 274.1 15.2 281.8 19.8 L 443.4 115.7 C 456.7 123.6 465.7 137.3 468.2 152.7 C 462.8 141.3 450.8 138.1 436.7 146.4 L 283.8 240.9 C 264.7 252 250.7 264.6 250.7 287.5 L 250.7 475.9 C 250.7 489.7 256.2 498.6 264.8 501.2 C 262 501.7 259.2 502 256.3 502 C 247.4 501.9 238.5 499.5 230.8 494.9 L 230.8 494.9 L 230.8 494.9 Z  M 406.8 371.8 L 366.5 395.9 C 365.4 396.5 364.6 397.2 364.6 398.5 L 364.6 409 C 364.6 410.3 365.5 410.8 366.5 410.2 L 407.4 385.4 C 408.5 384.8 408.6 383.6 408.6 382.3 L 408.6 373 C 408.7 371.7 407.8 371.2 406.8 371.8 L 406.8 371.8 Z  M 449.1 105.9 L 287.5 9.9 C 277.9 4.2 267.1 1.3 256.3 1.3 C 245.5 1.3 234.8 4.2 225.1 9.9 L 63.5 105.9 C 44.2 117.3 32.3 138.5 32.3 161.4 L 32.3 353.3 C 32.3 376.2 44.2 397.4 63.5 408.8 L 225.1 504.7 C 234.7 510.4 245.5 513.3 256.3 513.3 C 267.1 513.3 277.8 510.4 287.5 504.7 L 449.1 408.8 C 468.4 397.3 480.3 376.2 480.3 353.3 L 480.3 161.4 C 480.3 138.5 468.4 117.3 449.1 105.9 L 449.1 105.9 L 449.1 105.9 Z  M 321.1 283.2 C 322.4 282.5 323.5 283.4 323.5 285.1 L 323.6 299 C 329.4 296.7 334.5 296.1 339.1 297.1 C 340.1 297.4 340.5 298.7 340.1 300.3 L 337 312.6 C 336.8 313.5 336.2 314.5 335.6 315.1 C 335.3 315.4 335.1 315.6 334.8 315.7 C 334.4 315.9 334 316 333.6 315.9 C 331.5 315.4 326.5 314.3 318.7 318.3 C 310.5 322.5 307.6 329.6 307.7 334.9 C 307.8 341.2 311 343.2 322.2 343.3 C 337.1 343.5 343.6 350.1 343.7 365.1 C 343.9 379.9 336 395.7 323.9 405.5 L 324.2 419.3 C 324.2 421 323.1 422.9 321.8 423.5 L 313.6 428.2 C 312.3 428.9 311.2 428.1 311.2 426.4 L 311.1 412.8 C 304.1 415.7 297 416.4 292.5 414.6 C 291.6 414.3 291.3 413 291.6 411.6 L 294.6 399.1 C 294.8 398.1 295.4 397.1 296.1 396.5 C 296.4 396.3 296.6 396.1 296.9 395.9 C 297.4 395.7 297.8 395.6 298.2 395.8 C 303.1 397.4 309.3 396.7 315.3 393.6 C 322.9 389.7 328 382 327.9 374.2 C 327.8 367.2 324 364.3 314.8 364.2 C 303.1 364.2 292.1 361.9 291.9 344.6 C 291.8 330.4 299.2 315.6 310.9 306.2 L 310.8 292.3 C 310.8 290.6 311.8 288.7 313.2 288 L 321.1 283.2 L 321.1 283.2 Z " fill-rule="evenodd" fill="rgb(181,84,0)"/></g></svg>