<?xml version="1.0" encoding="UTF-8" standalone="no"?><!-- Generator: Gravit.io --><svg xmlns="http://www.w3.org/2000/svg" xmlns:xlink="http://www.w3.org/1999/xlink" style="isolation:isolate" viewBox="0 0 552 404" width="552pt" height="404pt"><defs><clipPath id="_clipPath_tzJ5TxWysdFx8XYR9CdpU10AvTuu6av5"><rect width="552" height="404"/></clipPath></defs><g clip-path="url(#_clipPath_tzJ5TxWysdFx8XYR9CdpU10AvTuu6av5)"><g><path d=" M 254.972 10.672 L 250.582 12.023 C 204.313 26.545 182.361 54.914 177.295 62.007 C 175.606 63.695 163.11 85.31 157.031 91.051 C 142.509 92.74 104.345 102.534 86.108 124.486 C 75.638 124.149 59.089 124.486 59.089 124.486 C 52.335 124.824 46.593 129.215 44.229 135.631 C 43.892 136.982 43.216 138.671 43.216 141.035 C 43.216 145.088 44.567 150.154 49.971 155.22 C 53.348 158.597 58.752 161.974 64.831 165.014 C 62.467 173.795 61.116 185.615 61.116 196.423 C 61.116 201.151 61.454 205.541 61.791 209.594 C 59.089 210.945 56.725 212.296 55.037 213.309 C 50.984 216.011 42.541 223.441 36.462 233.573 C 32.747 239.99 31.058 245.056 30.382 257.552 C 30.382 259.578 30.045 265.995 28.694 268.697 C 27.005 271.736 20.926 280.18 17.886 284.908 L 14.509 289.974 C 12.145 293.351 10.794 298.417 8.768 304.834 L 8.092 307.198 C 7.417 308.887 5.39 313.953 4.715 315.303 C 2.013 319.356 1 324.084 1 328.813 C 1 333.879 2.013 338.944 3.026 343.673 C 6.066 356.169 18.562 375.757 29.032 391.63 L 30.382 393.657 L 30.045 393.319 C 32.747 398.385 36.799 401.424 41.528 402.775 C 48.62 404.464 54.023 401.087 56.725 399.398 L 58.076 398.723 C 66.519 393.657 71.248 386.227 73.95 382.174 C 73.95 382.174 74.287 381.498 74.625 381.161 C 75.638 380.485 77.327 379.134 77.327 379.134 C 82.73 375.419 86.108 372.717 88.134 370.016 C 96.915 359.546 100.968 343.673 101.643 336.243 L 102.319 330.164 C 104.007 314.29 104.345 307.873 104.345 304.158 C 104.345 302.807 104.345 301.794 104.007 301.119 C 104.007 301.119 104.007 302.47 104.007 302.47 C 104.007 301.119 105.021 297.404 105.696 295.04 C 110.424 296.053 116.503 298.417 118.192 299.43 C 123.933 302.807 140.144 310.575 164.461 310.575 C 191.142 310.575 205.664 306.86 209.717 305.847 C 215.12 304.158 225.59 300.781 229.643 298.755 L 229.305 299.092 L 229.98 298.755 C 232.682 297.404 236.735 295.715 240.45 292.676 C 254.297 292.338 265.104 292.338 272.872 292.338 C 268.144 297.404 263.753 304.158 260.714 312.264 C 257.674 320.707 255.986 332.528 254.972 347.05 C 254.635 353.467 254.297 358.195 254.297 361.91 C 254.297 370.353 255.648 373.055 259.363 376.432 L 264.767 381.498 L 295.162 376.095 C 295.162 376.095 294.487 376.095 294.487 376.095 L 298.877 376.095 L 309.347 375.757 C 315.764 375.082 325.22 372.38 332.312 368.327 C 340.08 363.599 346.835 355.155 348.523 353.129 C 350.212 351.44 357.642 345.699 360.344 344.01 C 360.682 344.01 363.383 342.322 363.383 342.322 L 372.164 337.594 C 372.164 337.594 388.375 325.773 394.455 319.356 C 396.481 317.33 399.183 313.953 401.885 310.913 C 403.235 312.602 404.924 314.628 406.613 316.317 L 407.626 317.668 C 414.381 325.435 422.824 326.111 428.227 324.084 L 429.578 323.747 L 430.592 323.071 C 434.982 320.707 445.114 314.966 449.167 312.264 C 449.842 311.926 452.206 311.588 453.219 311.251 L 453.219 311.251 C 459.636 311.251 465.715 307.536 468.755 304.158 C 468.417 304.496 469.43 303.483 469.43 303.483 C 488.006 286.259 521.103 254.512 535.288 233.573 C 542.042 223.779 546.095 215.673 548.459 203.177 C 551.836 184.94 551.499 180.549 549.472 164.001 L 549.135 160.623 C 546.095 133.605 520.09 102.872 515.699 99.494 L 515.024 98.819 C 509.958 94.429 496.449 82.946 469.768 74.503 C 456.934 70.45 441.061 69.774 433.969 69.774 C 433.969 69.774 433.969 69.774 433.631 69.774 C 432.28 68.086 429.916 64.708 428.565 62.344 C 421.811 50.861 409.99 39.041 394.117 27.22 L 393.779 26.883 C 393.779 26.883 393.104 26.207 393.104 26.207 C 388.038 22.154 372.164 10.334 340.418 3.917 C 297.864 -4.188 269.832 5.268 254.972 10.672 Z " fill-rule="evenodd" fill="rgb(207,184,124)"/><path d=" M 308.334 15.738 C 281.653 15.738 264.429 23.168 255.31 26.207 C 230.994 33.975 214.445 45.458 203.638 55.252 L 316.439 55.252 L 338.054 84.972 L 332.312 123.473 L 294.149 123.473 L 298.877 92.402 L 210.392 92.402 L 196.207 188.317 L 225.252 188.317 L 230.318 154.207 L 218.498 154.207 L 223.226 123.136 L 274.561 123.136 L 265.104 187.98 L 284.355 187.98 L 289.421 153.869 L 327.922 153.869 L 321.505 196.423 L 291.109 225.13 L 259.363 225.13 L 255.31 252.486 L 330.961 252.486 L 350.212 122.122 L 401.547 122.122 L 396.819 153.531 L 384.998 153.531 L 369.125 261.604 L 339.742 289.974 L 296.851 289.974 C 288.07 294.364 279.964 301.794 275.574 315.641 C 270.17 333.541 270.17 364.274 270.17 364.274 C 270.17 364.274 289.758 361.235 292.798 360.559 C 295.5 359.884 303.268 360.559 308.334 359.884 C 313.4 359.208 320.83 357.182 325.558 354.48 C 330.286 351.44 335.69 345.361 338.054 342.659 C 340.418 339.62 351.225 331.852 353.252 330.501 C 355.278 329.15 362.37 326.448 364.734 324.76 C 367.098 323.071 380.27 313.277 384.66 308.549 C 389.051 303.821 397.156 294.026 399.52 290.311 C 403.573 284.232 407.964 289.298 408.301 291.325 C 409.99 296.728 417.082 304.158 419.784 306.86 C 422.486 309.9 424.512 309.224 424.512 309.224 C 424.512 309.224 439.035 301.119 442.074 299.092 C 445.114 296.728 451.868 296.053 453.895 296.053 C 455.921 296.053 458.285 294.364 459.299 293.351 C 460.312 292.338 507.256 249.784 524.143 224.792 C 529.546 216.687 533.261 210.27 534.95 200.138 C 537.989 182.238 537.652 179.536 535.625 161.974 C 533.261 140.36 510.971 113.341 507.932 110.64 C 504.892 107.938 493.071 96.455 466.729 88.349 C 454.233 84.297 436.671 84.297 434.307 84.634 C 431.942 84.972 426.539 81.933 425.188 80.919 C 423.837 79.568 419.446 73.827 417.42 70.112 C 408.301 54.914 390.064 41.743 386.349 39.041 C 382.972 36.339 369.463 24.856 338.729 18.777 C 326.909 16.751 317.115 15.738 308.334 15.738 L 308.334 15.738 Z  M 168.851 101.521 C 156.018 103.547 111.775 114.017 94.889 137.32 C 93.876 138.671 90.161 139.347 88.134 139.347 C 86.445 139.347 61.454 139.347 60.44 139.347 C 59.427 139.347 56.388 140.697 60.44 144.412 C 64.155 147.79 72.936 153.193 80.366 155.895 C 83.068 156.908 82.73 161.299 81.042 163.663 C 76.314 171.769 73.95 202.502 77.665 213.309 C 78.34 214.66 77.327 219.726 75.3 220.402 C 72.261 221.415 65.844 224.454 63.142 226.143 C 60.44 227.832 53.686 233.911 48.958 241.678 C 46.593 246.069 45.243 248.433 44.905 258.565 C 44.567 264.644 44.229 271.399 41.19 276.465 C 38.15 281.531 28.018 295.715 26.33 298.417 C 24.641 301.119 22.615 309.562 21.601 311.926 C 20.926 314.628 17.886 321.045 16.536 323.409 C 14.171 327.124 15.86 335.905 17.211 340.295 C 20.588 353.805 42.203 384.876 42.878 386.564 C 44.905 390.279 46.256 388.591 49.971 386.227 C 58.414 381.161 61.454 372.717 63.818 370.353 C 66.182 368.327 74.625 362.586 76.314 360.559 C 82.73 352.791 86.108 339.958 86.445 334.892 C 86.783 329.826 89.485 305.847 89.147 302.807 C 88.81 299.768 91.174 288.285 93.876 285.246 C 96.24 282.206 101.306 278.829 104.007 279.166 C 110.762 279.842 121.907 284.232 125.622 286.259 C 133.052 290.649 146.224 295.377 164.123 295.377 C 185.738 295.377 199.585 292.676 205.326 290.987 C 212.081 288.961 220.186 286.259 222.55 284.908 C 223.226 284.57 226.265 283.557 228.967 281.868 L 213.769 261.942 L 219.173 225.467 L 178.646 225.467 L 154.329 196.423 L 168.851 101.521 L 168.851 101.521 Z " fill-rule="evenodd" fill="rgb(0,0,0)"/><g><path d=" M 453.895 202.502 C 449.842 208.919 444.101 208.919 444.101 208.919 C 431.267 209.594 430.592 196.76 430.592 196.76 C 431.267 169.067 462.676 151.842 473.821 146.101 C 473.821 146.101 477.874 143.737 475.847 147.452 C 465.378 165.689 460.649 179.199 459.299 185.615 C 458.961 185.278 456.597 198.449 453.895 202.502 Z " fill="rgb(255,255,255)"/><path d=" M 453.895 202.502 C 449.842 208.919 444.101 208.919 444.101 208.919 C 431.267 209.594 430.592 196.76 430.592 196.76 C 431.267 169.067 462.676 151.842 473.821 146.101 C 473.821 146.101 477.874 143.737 475.847 147.452 C 465.378 165.689 460.649 179.199 459.299 185.615 C 458.961 185.278 456.597 198.449 453.895 202.502 Z " fill="rgb(255,255,255)"/></g></g></g></svg>