<?xml version="1.0" encoding="UTF-8" standalone="no"?><!-- Generator: Gravit.io --><svg xmlns="http://www.w3.org/2000/svg" xmlns:xlink="http://www.w3.org/1999/xlink" style="isolation:isolate" viewBox="0 0 1000 1000" width="1000pt" height="1000pt"><defs><clipPath id="_clipPath_4HPf4PbRE6say0pmPObPJxwRVpFMWbRK"><rect width="1000" height="1000"/></clipPath></defs><g clip-path="url(#_clipPath_4HPf4PbRE6say0pmPObPJxwRVpFMWbRK)"><g><path d=" M 544.446 161.586 Q 633.904 160.504 687.145 195.638 Q 717.38 215.266 741.063 241.446 Q 754.111 263.262 770.657 281.579 Q 776.521 287.066 787.683 287.255 Q 789.913 284.214 797.413 286.444 Q 881.185 293.48 925.112 340.36 Q 942.852 360.727 955.517 386.168 Q 975.008 417.756 972.949 470.894 Q 968.845 530.435 934.842 560.078 Q 903.826 598.384 867.951 631.831 L 866.735 632.236 L 865.519 634.263 L 837.952 660.208 C 831.396 671.89 818.504 669.52 807.588 672.967 C 802.477 674.582 797.659 677.167 793.764 680.882 L 793.764 680.882 L 773.9 691.828 C 772.083 694.925 768.226 695.357 764.981 695.071 L 764.981 695.071 L 758.089 689.801 C 748.513 680.321 740.789 669.107 734.982 656.965 L 734.982 656.965 L 729.306 655.343 L 724.036 658.991 Q 708.735 682.203 688.767 700.746 Q 672.527 718.154 649.443 728.717 Q 623.303 739.468 607.282 760.337 L 594.715 773.715 C 582.337 783.488 566.769 786.961 551.366 788.135 C 540.925 788.93 530.938 786.16 520.933 790.741 L 520.933 790.741 L 489.312 795.606 L 488.907 776.553 Q 489.933 750.418 493.772 727.096 Q 499.463 688.195 524.176 668.315 Q 530.156 658.89 547.689 661.018 L 580.932 661.018 L 606.066 661.018 C 610.153 661.936 616.279 662.559 618.228 657.775 L 618.228 657.775 L 628.363 647.641 L 668.092 609.535 L 697.685 412.924 L 719.171 412.518 L 727.279 355.765 L 635.254 355.359 C 628.621 377.029 625.42 399.652 624.309 422.248 L 624.309 422.248 L 606.066 545.079 L 598.769 592.103 L 462.151 591.698 L 467.015 555.213 C 466.783 550.928 467.212 546.207 469.853 542.646 L 469.853 542.646 L 512.014 542.646 C 517.344 544.057 526.095 545.766 529.446 539.809 L 529.446 539.809 L 541.203 528.863 L 582.148 490.352 L 593.499 413.329 L 523.365 412.924 L 516.879 456.705 L 514.852 470.083 C 515.186 471.587 515.404 473.835 513.636 474.542 L 513.636 474.542 L 479.988 474.137 C 484.616 434.808 490.251 395.595 497.015 356.575 L 497.015 356.575 L 403.368 356.17 L 394.855 412.518 L 415.936 413.329 L 406.612 474.542 L 354.316 474.137 L 372.964 347.657 C 376.369 337.781 377.451 327.438 377.825 317.047 C 378.013 311.83 375.782 304.048 380.666 300.227 L 380.666 300.227 L 539.987 300.632 L 531.879 356.575 L 601.201 356.981 C 607.656 333.88 610.916 309.962 612.147 286.039 L 612.147 286.039 L 572.824 232.933 L 368.91 232.528 C 417.465 189.586 481.013 169.133 544.446 161.586 L 544.446 161.586 L 544.446 161.586 Z  M 537.149 134.831 Q 634.082 132.354 693.226 167.667 Q 728.901 188.747 756.468 217.934 Q 773.829 237.058 787.683 259.689 Q 890.916 263.48 942.139 319.28 Q 963.327 343.09 979.03 372.385 Q 1002.488 410.546 999.705 474.947 Q 992.41 547.918 949.436 585.212 Q 914.331 626.725 874.438 663.451 L 852.952 683.314 Q 844.579 693.589 829.033 696.692 Q 807.277 698.448 795.791 710.475 Q 785.176 722.967 760.927 721.826 Q 749.508 719.461 742.684 712.502 L 742.279 711.286 L 737.009 706.827 L 729.306 697.503 L 725.658 700.341 Q 717.202 712.56 705.793 721.826 Q 687.875 740.393 662.821 751.824 Q 642.083 761.896 627.552 778.174 L 613.363 793.173 C 597.796 806.983 577.602 812.495 557.35 814.691 C 545.324 815.995 533.546 813.57 521.744 817.496 L 521.744 817.496 L 480.393 824.793 L 466.205 811.416 Q 458.696 799.466 461.34 777.363 Q 465.137 774.269 462.961 765.202 Q 462.321 743.077 466.205 725.474 Q 471.979 685.845 494.582 663.045 Q 492.15 659.397 483.637 661.829 L 452.827 661.829 Q 436.359 659.145 430.124 666.694 Q 419.361 674.172 405.395 678.45 Q 360.125 696.826 295.533 695.881 Q 255.554 694.916 227.427 682.098 Q 211.981 672.004 190.941 667.505 Q 186.989 676.12 187.698 689.395 Q 183.705 710.942 184.049 736.825 Q 179.115 786.212 150.402 811.821 L 132.97 825.199 C 122.484 844.643 104.981 860.6 83.106 865.332 L 83.106 865.332 L 81.484 864.521 L 79.052 865.332 Q 64.171 862.781 56.755 852.765 Q 37.452 825.448 21.081 795.2 Q 0.838 769.634 0 724.664 Q 1.284 711.759 7.297 703.584 Q 13.769 693.029 16.216 678.45 Q 21.944 657.017 35.675 643.587 L 47.026 626.561 Q 56.318 615.989 54.323 594.13 Q 59.639 549.989 87.971 528.863 Q 98.119 519.553 111.078 513.053 Q 107.727 497.352 109.457 476.569 Q 110.867 452.846 115.943 432.787 Q 96.927 424.237 84.322 409.275 Q 76.458 401.33 77.025 384.952 Q 79.638 371.755 88.782 365.088 Q 97.45 357.136 115.538 358.602 L 147.159 358.602 C 148.888 361.1 152.894 360.102 155.266 359.413 L 155.266 359.413 L 164.996 348.873 Q 212.122 310.056 285.398 297.389 Q 301.28 277.597 314.181 254.824 Q 328.63 231.977 348.235 214.286 Q 418.592 150.46 537.149 134.831 L 537.149 134.831 Z  M 300.398 318.064 L 304.046 318.469 C 297.172 375.7 288.851 432.761 278.912 489.541 L 278.912 489.541 L 323.1 542.646 L 396.477 543.052 L 386.747 608.724 L 414.314 644.398 Q 364.732 672.651 282.561 668.315 Q 253.908 665.753 233.102 655.343 Q 214.06 642.359 185.266 639.128 Q 174.945 642.996 168.644 650.884 Q 161.697 662.99 160.537 680.882 Q 163.172 682.706 161.347 688.99 Q 158.104 691.422 160.537 699.53 L 156.483 736.014 C 154.648 756.492 148.04 777.258 132.564 791.552 L 132.564 791.552 L 112.7 806.551 Q 106.558 819.057 96.889 828.036 Q 90.977 835.502 79.863 837.766 Q 61.394 812.452 45.81 784.255 Q 29.706 763.063 26.756 728.717 Q 27.118 720.161 31.621 715.745 Q 37.869 704.967 40.945 691.017 Q 46.37 668.47 60.404 654.532 Q 78.864 639.345 80.268 607.102 Q 80.116 567.628 103.376 551.565 L 104.592 551.159 L 105.808 549.133 Q 119.489 536.869 138.645 530.08 Q 141.193 526.547 140.267 519.54 Q 134.785 506.779 136.213 487.109 Q 136.489 459.414 142.699 437.652 Q 148.658 431.855 147.564 419.004 L 145.537 416.167 C 130.603 411.222 116.614 403.374 105.403 392.249 L 105.403 392.249 L 104.592 387.385 C 110.232 381.805 122.445 382.702 128.631 386.251 C 131.051 387.64 134.109 386.906 136.618 386.168 L 136.618 386.168 L 162.564 386.168 C 167.141 385.611 171.367 383.513 173.509 379.277 L 173.509 379.277 L 186.887 365.088 C 220.043 340.082 259.824 325.558 300.398 318.064 L 300.398 318.064 Z " fill-rule="evenodd" fill="rgb(181,84,0)"/><path d=" M 862.276 395.898 L 863.492 397.924 Q 843.256 429.579 832.277 470.488 Q 830.551 495.924 816.061 508.594 Q 811.12 513.788 799.845 512.648 Q 791.298 511.06 786.467 505.757 Q 779.981 499.27 779.981 486.298 Q 786.764 446.057 814.439 426.707 Q 835.564 408.508 862.276 395.898 Z " fill="rgb(181,84,0)"/></g></g></svg>