<?xml version="1.0" encoding="UTF-8" standalone="no"?><!-- Generator: Gravit.io --><svg xmlns="http://www.w3.org/2000/svg" xmlns:xlink="http://www.w3.org/1999/xlink" style="isolation:isolate" viewBox="0 0 256 278" width="256pt" height="278pt"><defs><clipPath id="_clipPath_LsKTtR3m7SYS1aOKH69iXmoFlBGUNzca"><rect width="256" height="278"/></clipPath></defs><g clip-path="url(#_clipPath_LsKTtR3m7SYS1aOKH69iXmoFlBGUNzca)"><path d=" M 90.317 59.645 C 54.053 53.04 25.381 59.953 13.953 79.746 C 5.426 94.516 7.863 114.099 19.865 135.031 C 20.886 136.813 23.158 137.429 24.94 136.408 C 26.722 135.386 27.338 133.114 26.317 131.332 C 15.506 112.476 13.402 95.575 20.394 83.465 C 29.887 67.023 55.462 60.857 88.984 66.962 C 91.005 67.33 92.941 65.99 93.309 63.97 C 93.677 61.949 92.338 60.013 90.317 59.645 Z  M 143.948 25.961 C 140.988 31.684 135.015 35.596 128.128 35.596 C 118.299 35.596 110.33 27.627 110.33 17.798 C 110.33 7.968 118.299 0 128.128 0 C 137.957 0 145.926 7.968 145.926 17.798 C 145.926 18.055 145.92 18.311 145.91 18.565 C 175.371 33.802 195.843 85.762 195.843 145.791 C 195.843 170.48 192.391 194.173 185.964 214.711 C 185.351 216.671 183.265 217.762 181.305 217.149 C 179.345 216.536 178.253 214.45 178.867 212.49 C 185.063 192.688 188.406 169.743 188.406 145.791 C 188.406 89.267 169.617 40.628 143.948 25.961 L 143.948 25.961 Z  M 16.468 193.319 C 16.907 193.286 17.351 193.27 17.798 193.27 C 27.627 193.27 35.596 201.238 35.596 211.068 C 35.596 220.897 27.627 228.865 17.798 228.865 C 7.968 228.865 0 220.897 0 211.068 C 0 204.376 3.693 198.547 9.151 195.507 C 6.471 162.243 41.434 117.653 94.27 87.148 C 116.217 74.477 139.069 65.483 160.538 60.883 C 162.546 60.453 164.523 61.732 164.953 63.741 C 165.384 65.749 164.105 67.725 162.096 68.156 C 141.406 72.589 119.279 81.297 97.989 93.589 C 48.23 122.317 15.328 163.723 16.468 193.319 Z  M 222.727 219.865 C 221.249 217.271 220.404 214.268 220.404 211.068 C 220.404 201.238 228.373 193.27 238.202 193.27 C 248.032 193.27 256 201.238 256 211.068 C 256 220.897 248.032 228.865 238.202 228.865 C 234.329 228.865 230.744 227.628 227.822 225.527 C 199.43 242.23 145.197 233.711 94.161 204.245 C 72.436 191.702 53.386 176.588 38.723 160.475 C 37.341 158.956 37.452 156.604 38.971 155.222 C 40.49 153.839 42.841 153.95 44.224 155.469 C 58.357 171.001 76.804 185.636 97.88 197.804 C 146.045 225.612 196.766 233.888 222.727 219.865 L 222.727 219.865 Z  M 221.562 155.951 C 220.235 157.518 217.889 157.713 216.321 156.387 C 214.754 155.06 214.559 152.713 215.886 151.146 C 237.832 125.22 245.225 100.06 235.753 83.654 C 228.877 71.744 213.594 65.133 192.391 64.858 C 190.338 64.831 188.695 63.145 188.721 61.091 C 188.748 59.037 190.434 57.394 192.488 57.421 C 216.063 57.728 233.803 65.401 242.194 79.935 C 253.598 99.687 245.307 127.9 221.562 155.951 Z  M 72.564 221.492 C 71.871 219.558 72.877 217.43 74.811 216.737 C 76.744 216.045 78.873 217.051 79.565 218.984 C 91.041 251.029 109.156 270.066 128.128 270.066 C 141.773 270.066 155.039 260.292 165.838 242.326 C 166.897 240.566 169.181 239.997 170.941 241.055 C 172.702 242.113 173.271 244.398 172.213 246.158 C 160.195 266.149 144.785 277.503 128.128 277.503 C 105.289 277.503 84.979 256.159 72.564 221.492 L 72.564 221.492 Z  M 248.563 211.068 C 248.563 205.346 243.924 200.707 238.202 200.707 C 232.48 200.707 227.841 205.346 227.841 211.068 C 227.841 216.79 232.48 221.428 238.202 221.428 C 243.924 221.428 248.563 216.79 248.563 211.068 Z  M 17.798 221.428 C 23.52 221.428 28.159 216.79 28.159 211.068 C 28.159 205.346 23.52 200.707 17.798 200.707 C 12.076 200.707 7.437 205.346 7.437 211.068 C 7.437 216.79 12.076 221.428 17.798 221.428 Z  M 128.128 28.159 C 133.85 28.159 138.489 23.52 138.489 17.798 C 138.489 12.076 133.85 7.437 128.128 7.437 C 122.406 7.437 117.767 12.076 117.767 17.798 C 117.767 23.52 122.406 28.159 128.128 28.159 Z  M 130.846 158.377 C 123.895 159.88 117.046 155.462 115.541 148.51 C 114.042 141.558 118.457 134.71 125.409 133.205 C 132.36 131.703 139.209 136.12 140.714 143.072 C 142.216 150.024 137.798 156.873 130.846 158.377 Z " fill="rgb(181,84,0)"/></g></svg>