<?xml version="1.0" encoding="UTF-8" standalone="no"?><!-- Generator: Gravit.io --><svg xmlns="http://www.w3.org/2000/svg" xmlns:xlink="http://www.w3.org/1999/xlink" style="isolation:isolate" viewBox="0 0 300 300" width="300pt" height="300pt"><defs><clipPath id="_clipPath_iza6zgue0trGkQRfCN0bVcD7QNyMa5qG"><rect width="300" height="300"/></clipPath></defs><g clip-path="url(#_clipPath_iza6zgue0trGkQRfCN0bVcD7QNyMa5qG)"><path d=" M 150.124 0 C 67.109 0 0 67.604 0 151.239 C 0 218.093 42.999 274.684 102.65 294.713 C 110.108 296.219 112.84 291.459 112.84 287.455 C 112.84 283.949 112.594 271.93 112.594 259.408 C 70.834 268.424 62.137 241.38 62.137 241.38 C 55.426 223.852 45.482 219.347 45.482 219.347 C 31.814 210.082 46.478 210.082 46.478 210.082 C 61.639 211.084 69.595 225.606 69.595 225.606 C 83.014 248.641 104.639 242.133 113.338 238.125 C 114.579 228.36 118.559 221.599 122.784 217.844 C 89.477 214.338 54.433 201.318 54.433 143.225 C 54.433 126.699 60.395 113.178 69.841 102.663 C 68.351 98.908 63.13 83.38 71.334 62.598 C 71.334 62.598 84.01 58.591 112.591 78.122 C 124.828 74.812 137.447 73.128 150.124 73.114 C 162.799 73.114 175.721 74.868 187.653 78.122 C 216.237 58.591 228.913 62.598 228.913 62.598 C 237.118 83.38 231.894 98.908 230.403 102.663 C 240.098 113.178 245.814 126.699 245.814 143.225 C 245.814 201.318 210.77 214.086 177.214 217.844 C 182.684 222.601 187.404 231.614 187.404 245.888 C 187.404 266.169 187.158 282.446 187.158 287.452 C 187.158 291.459 189.893 296.219 197.348 294.716 C 256.999 274.681 299.998 218.093 299.998 151.239 C 300.244 67.604 232.889 0 150.124 0 Z " fill-rule="evenodd" fill="rgb(181,84,0)"/></g></svg>