<?xml version="1.0" encoding="UTF-8" standalone="no"?><!-- Generator: Gravit.io --><svg xmlns="http://www.w3.org/2000/svg" xmlns:xlink="http://www.w3.org/1999/xlink" style="isolation:isolate" viewBox="0 0 40 40" width="40pt" height="40pt"><defs><clipPath id="_clipPath_yTLH02fx2BBRAdfb0EbQik9RFsFhfcgG"><rect width="40" height="40"/></clipPath></defs><g clip-path="url(#_clipPath_yTLH02fx2BBRAdfb0EbQik9RFsFhfcgG)"><path d=" M 31.5 10 L 35 10 C 37.76 10 40 12.24 40 15 L 40 25 C 40 27.76 37.76 30 35 30 L 30 30 L 30 30 L 30 29.5 L 20 29.5 L 20 31.5 L 29.888 31.5 C 29.163 36.309 25.009 40 20 40 L 20 40 C 14.481 40 10 35.519 10 30 L 9.5 30 L 10.5 29.99 C 10.49 28.92 10.53 27.85 10.62 26.78 C 10.68 25.99 10.8 25.21 10.98 24.45 C 11.1 23.92 11.3 23.4 11.56 22.93 C 11.75 22.58 12.01 22.28 12.31 22.03 C 12.62 21.79 12.98 21.6 13.35 21.48 C 13.85 21.32 14.36 21.21 14.88 21.15 C 15.56 21.07 16.25 21.03 16.93 21.02 C 17.79 21 18.64 21 19.5 21 C 20.47 21 21.45 21 22.43 20.98 C 23.25 20.97 24.08 20.92 24.9 20.84 C 25.61 20.77 26.32 20.63 27 20.43 C 27.64 20.24 28.24 19.95 28.78 19.56 C 29.32 19.15 29.78 18.65 30.12 18.07 C 30.49 17.43 30.77 16.74 30.95 16.02 C 31.16 15.15 31.3 14.27 31.37 13.38 C 31.47 12.253 31.51 11.127 31.5 10 Z  M 30.5 10 L 30 10 L 30 10 L 30 10 C 30 4.481 25.519 0 20 0 L 20 0 C 14.991 0 10.837 3.691 10.112 8.5 L 10.112 8.5 L 20 8.5 L 20 10.5 L 10 10.5 L 10 10 L 10 10 L 10 10 L 5 10 C 2.24 10 0 12.24 0 15 L 0 25 C 0 27.76 2.24 30 5 30 L 8.5 30 C 8.49 28.873 8.53 27.747 8.63 26.62 C 8.69 25.73 8.83 24.85 9.03 23.99 C 9.2 23.28 9.46 22.6 9.81 21.96 C 10.13 21.39 10.56 20.88 11.06 20.47 C 11.56 20.08 12.13 19.78 12.73 19.58 C 13.36 19.37 14.01 19.23 14.66 19.16 C 15.41 19.08 16.15 19.03 16.9 19.02 C 17.77 19 18.64 19 19.5 19 C 20.47 19 21.43 19 22.4 18.98 C 23.17 18.97 23.94 18.93 24.71 18.85 C 25.29 18.79 25.87 18.68 26.43 18.51 C 26.85 18.39 27.24 18.2 27.6 17.94 C 27.92 17.7 28.19 17.4 28.4 17.05 C 28.67 16.58 28.88 16.07 29.01 15.54 C 29.19 14.78 29.32 14 29.38 13.22 C 29.47 12.15 29.51 11.08 29.5 10.01 L 30.5 10 Z  M 12.65 5 C 12.65 3.979 13.479 3.15 14.5 3.15 C 15.521 3.15 16.35 3.979 16.35 5 C 16.35 6.021 15.521 6.85 14.5 6.85 C 13.479 6.85 12.65 6.021 12.65 5 L 12.65 5 L 12.65 5 L 12.65 5 L 12.65 5 Z  M 23.65 35 C 23.65 33.979 24.479 33.15 25.5 33.15 C 26.521 33.15 27.35 33.979 27.35 35 C 27.35 36.021 26.521 36.85 25.5 36.85 C 24.479 36.85 23.65 36.021 23.65 35 L 23.65 35 L 23.65 35 L 23.65 35 Z " fill-rule="evenodd" fill="rgb(181,84,0)"/></g></svg>