<?xml version="1.0" encoding="UTF-8" standalone="no"?><!-- Generator: Gravit.io --><svg xmlns="http://www.w3.org/2000/svg" xmlns:xlink="http://www.w3.org/1999/xlink" style="isolation:isolate" viewBox="0 0 34.5 30.695" width="34.5pt" height="30.695pt"><defs><clipPath id="_clipPath_MrKqbvOogCKyOv8bMEWwdfTDD9cNs3LR"><rect width="34.5" height="30.695"/></clipPath></defs><g clip-path="url(#_clipPath_MrKqbvOogCKyOv8bMEWwdfTDD9cNs3LR)"><circle vector-effect="non-scaling-stroke" cx="17.25" cy="15.34761" r="3.0749999999999993" fill="rgb(181,84,0)" stroke-width="1.5" stroke="rgb(181,84,0)" stroke-linejoin="miter" stroke-linecap="butt" stroke-miterlimit="4"/><g><ellipse vector-effect="non-scaling-stroke" cx="17.25" cy="15.34761" rx="16.5" ry="6.300000000000001" fill="none" stroke-width="1.5" stroke="rgb(181,84,0)" stroke-linejoin="miter" stroke-linecap="butt" stroke-miterlimit="4"/><path d=" M 9 1.058 C 12.011 -0.68 18.153 4.311 22.706 12.198 C 27.259 20.084 28.511 27.898 25.5 29.637 C 22.489 31.376 16.347 26.384 11.794 18.498 C 7.241 10.611 5.989 2.797 9 1.058 Z " fill="none" vector-effect="non-scaling-stroke" stroke-width="1.5" stroke="rgb(181,84,0)" stroke-linejoin="miter" stroke-linecap="butt" stroke-miterlimit="4"/><path d=" M 25.5 1.058 C 28.511 2.797 27.259 10.611 22.706 18.498 C 18.153 26.384 12.011 31.376 9 29.637 C 5.989 27.898 7.241 20.084 11.794 12.198 C 16.347 4.311 22.489 -0.68 25.5 1.058 Z " fill="none" vector-effect="non-scaling-stroke" stroke-width="1.5" stroke="rgb(181,84,0)" stroke-linejoin="miter" stroke-linecap="butt" stroke-miterlimit="4"/></g></g></svg>