<?xml version="1.0" encoding="UTF-8" standalone="no"?><!-- Generator: Gravit.io --><svg xmlns="http://www.w3.org/2000/svg" xmlns:xlink="http://www.w3.org/1999/xlink" style="isolation:isolate" viewBox="0 0 190 190" width="190pt" height="190pt"><defs><clipPath id="_clipPath_wTZUm2IvQe3TQdd63HrjSWKNoTjopFbR"><rect width="190" height="190"/></clipPath></defs><g clip-path="url(#_clipPath_wTZUm2IvQe3TQdd63HrjSWKNoTjopFbR)"><g><g><g><path d=" M 58.421 113.248 C 58.421 102.671 66.941 94.152 77.495 94.152 C 88.071 94.152 96.596 102.671 96.596 113.248 C 96.596 123.802 88.071 132.327 77.495 132.327 C 66.941 132.327 58.421 123.802 58.421 113.248 Z " fill="rgb(149,158,204)"/></g><g><path d=" M 47.233 163.136 C 47.233 142.274 45.489 140.513 24.633 140.513 C 14.056 140.513 5.537 131.989 5.537 121.434 C 5.537 110.864 14.056 102.339 24.633 102.339 C 35.209 102.339 43.728 110.864 43.728 121.434 C 43.728 142.274 45.489 144.041 66.329 144.041 C 76.905 144.041 85.424 152.56 85.424 163.136 C 85.424 173.69 76.905 182.209 66.329 182.209 C 55.753 182.209 47.233 173.69 47.233 163.136 Z " fill="rgb(8,72,151)"/></g><g><path d=" M 136.218 120.354 C 136.218 99.497 134.473 97.731 113.612 97.731 C 103.035 97.731 94.538 89.212 94.538 78.636 C 94.538 68.081 103.035 59.557 113.612 59.557 C 124.188 59.557 132.707 68.081 132.707 78.636 C 132.707 99.497 134.473 101.258 155.313 101.258 C 165.889 101.258 174.409 109.783 174.409 120.354 C 174.409 130.913 165.889 139.433 155.313 139.433 C 144.737 139.433 136.218 130.913 136.218 120.354 Z " fill="rgb(87,110,175)"/></g><g><path d=" M 146.288 68.582 C 146.288 47.726 144.527 45.965 123.688 45.965 C 113.111 45.965 104.592 37.462 104.592 26.886 C 104.592 16.304 113.111 7.791 123.688 7.791 C 134.242 7.791 142.767 16.304 142.767 26.886 C 142.767 47.726 144.527 49.487 165.384 49.487 C 175.96 49.487 184.463 58.006 184.463 68.582 C 184.463 79.158 175.96 87.661 165.384 87.661 C 154.807 87.661 146.288 79.158 146.288 68.582 Z " fill="rgb(245,130,43)"/></g><g><path d=" M 97.107 159.169 C 97.107 148.593 105.626 140.09 116.202 140.09 C 126.762 140.09 135.281 148.593 135.281 159.169 C 135.281 169.746 126.762 178.265 116.202 178.265 C 105.626 178.265 97.107 169.746 97.107 159.169 Z " fill="rgb(245,130,43)"/></g><g><path d=" M 13.709 70.536 C 13.709 59.96 22.228 51.441 32.788 51.441 C 43.364 51.441 51.883 59.96 51.883 70.536 C 51.883 81.112 43.364 89.632 32.788 89.632 C 22.228 89.632 13.709 81.112 13.709 70.536 Z " fill="rgb(248,164,100)"/></g><g><path d=" M 49.881 31.602 C 49.881 21.031 58.4 12.507 68.954 12.507 C 79.531 12.507 88.05 21.031 88.05 31.602 C 88.05 42.178 79.531 50.697 68.954 50.697 C 58.4 50.697 49.881 42.178 49.881 31.602 Z " fill="rgb(8,72,151)"/></g></g></g></g></svg>