<?xml version="1.0" encoding="UTF-8" standalone="no"?><!-- Generator: Gravit.io --><svg xmlns="http://www.w3.org/2000/svg" xmlns:xlink="http://www.w3.org/1999/xlink" style="isolation:isolate" viewBox="0 0 800 800" width="800pt" height="800pt"><defs><clipPath id="_clipPath_rFX211PRzjH71eiHFjgBIinfnwo6u9uu"><rect width="800" height="800"/></clipPath></defs><g clip-path="url(#_clipPath_rFX211PRzjH71eiHFjgBIinfnwo6u9uu)"><path d=" M 23.146 599.826 C 26.776 606.279 32.019 611.119 38.472 614.749 L 349.023 793.82 L 349.023 793.82 C 361.929 801.482 377.658 801.482 390.161 793.82 L 700.711 614.749 C 713.617 607.489 721.28 593.777 721.28 578.854 L 721.28 220.713 L 721.28 220.713 C 721.28 205.79 713.617 192.078 700.711 184.818 L 390.161 5.747 L 390.161 5.747 C 377.255 -1.916 361.525 -1.916 349.023 5.747 L 349.023 5.747 L 38.472 184.818 C 25.163 192.078 17.5 205.79 17.5 220.713 L 17.5 220.713 L 17.5 579.257 C 17.5 586.517 19.113 593.373 23.146 599.826 Z  M 269.974 536.506 C 269.974 558.688 252.228 576.434 230.046 576.434 C 207.863 576.434 190.118 558.688 190.118 536.506 L 190.118 536.506 L 190.118 262.657 C 190.118 241.282 209.073 223.939 235.289 223.939 C 254.244 223.939 276.427 231.602 289.736 248.138 L 301.835 262.657 L 468.807 462.297 L 468.807 263.464 L 468.807 263.464 C 468.807 241.282 486.552 223.536 508.734 223.536 C 530.917 223.536 548.662 241.282 548.662 263.464 L 548.662 263.464 L 548.662 537.313 C 548.662 558.688 529.707 576.031 503.491 576.031 C 484.536 576.031 462.354 568.368 449.044 551.832 L 269.974 338.077 L 269.974 536.506 L 269.974 536.506 Z " fill-rule="evenodd" fill="rgb(181,84,0)"/></g></svg>