<?xml version="1.0" encoding="UTF-8" standalone="no"?><!-- Generator: Gravit.io --><svg xmlns="http://www.w3.org/2000/svg" xmlns:xlink="http://www.w3.org/1999/xlink" style="isolation:isolate" viewBox="0 0 256 289" width="256pt" height="289pt"><defs><clipPath id="_clipPath_ahloqg2mRC3GqiJMtAiobeUv6taNm9L5"><rect width="256" height="289"/></clipPath></defs><g clip-path="url(#_clipPath_ahloqg2mRC3GqiJMtAiobeUv6taNm9L5)"><path d=" M 128 288.464 C 124.025 288.464 120.315 287.404 116.87 285.549 L 81.623 264.613 C 76.323 261.698 78.973 260.638 80.563 260.108 C 87.718 257.723 89.043 257.193 96.464 252.952 C 97.259 252.422 98.319 252.687 99.114 253.217 L 126.145 269.383 C 127.205 269.913 128.53 269.913 129.325 269.383 L 235.064 208.166 C 236.124 207.636 236.654 206.576 236.654 205.251 L 236.654 83.081 C 236.654 81.756 236.124 80.696 235.064 80.166 L 129.325 19.213 C 128.265 18.683 126.94 18.683 126.145 19.213 L 20.406 80.166 C 19.346 80.696 18.816 82.021 18.816 83.081 L 18.816 205.251 C 18.816 206.311 19.346 207.636 20.406 208.166 L 49.292 224.861 C 64.928 232.812 74.733 223.536 74.733 214.261 L 74.733 93.681 C 74.733 92.091 76.058 90.501 77.913 90.501 L 91.429 90.501 C 93.019 90.501 94.609 91.826 94.609 93.681 L 94.609 214.261 C 94.609 235.197 83.213 247.387 63.337 247.387 C 57.242 247.387 52.472 247.387 38.957 240.762 L 11.13 224.861 C 4.24 220.886 0 213.466 0 205.516 L 0 83.346 C 0 75.395 4.24 67.975 11.13 64 L 116.87 2.783 C 123.495 -0.928 132.505 -0.928 139.13 2.783 L 244.87 64 C 251.76 67.975 256 75.395 256 83.346 L 256 205.516 C 256 213.466 251.76 220.886 244.87 224.861 L 139.13 286.079 C 135.685 287.669 131.71 288.464 128 288.464 L 128 288.464 Z  M 160.596 204.455 C 114.219 204.455 104.679 183.255 104.679 165.234 C 104.679 163.644 106.004 162.054 107.859 162.054 L 121.64 162.054 C 123.23 162.054 124.555 163.114 124.555 164.704 C 126.675 178.749 132.77 185.64 160.861 185.64 C 183.122 185.64 192.663 180.605 192.663 168.679 C 192.663 161.789 190.012 156.754 155.296 153.308 C 126.41 150.393 108.389 144.033 108.389 120.977 C 108.389 99.511 126.41 86.791 156.621 86.791 C 190.542 86.791 207.238 98.451 209.358 123.892 C 209.358 124.687 209.093 125.482 208.563 126.277 C 208.033 126.807 207.238 127.337 206.443 127.337 L 192.663 127.337 C 191.337 127.337 190.012 126.277 189.747 124.952 C 186.567 110.377 178.352 105.607 156.621 105.607 C 132.24 105.607 129.325 114.087 129.325 120.447 C 129.325 128.133 132.77 130.518 165.631 134.758 C 198.228 138.998 213.598 145.093 213.598 167.884 C 213.333 191.205 194.253 204.455 160.596 204.455 L 160.596 204.455 Z " fill="rgb(181,84,0)"/></g></svg>