<?xml version="1.0" encoding="UTF-8" standalone="no"?><!-- Generator: Gravit.io --><svg xmlns="http://www.w3.org/2000/svg" xmlns:xlink="http://www.w3.org/1999/xlink" style="isolation:isolate" viewBox="0 0 473 473" width="473pt" height="473pt"><defs><clipPath id="_clipPath_SO7nQxewLzJX1TgaidHBC6qlh1l6Txuc"><rect width="473" height="473"/></clipPath></defs><g clip-path="url(#_clipPath_SO7nQxewLzJX1TgaidHBC6qlh1l6Txuc)"><g style="isolation:isolate"/><g style="isolation:isolate"/><g style="isolation:isolate"/><circle vector-effect="non-scaling-stroke" cx="186" cy="73" r="20" fill="rgb(181,84,0)"/><path d=" M 125 319 L 68 319 Q 23 310.667 21 232 C 19 153.333 69.667 154.667 94 155 Q 118.333 155.333 248 155 L 248 103 L 146 103 L 146 73 Q 148.333 20 234 20 Q 319.667 20 330 73 L 330 194 Q 325.667 227 297 227 Q 268.333 227 177 227 Q 125 232.667 125 279 Q 125 325.333 125 319 L 125 319 Z  M 227 135 L 66 135 Q 2 150.299 2 229 C 2 307.701 33.295 339 66 339 Q 98.705 339 124 339 L 124 409 Q 146.408 473 227 473 C 307.592 473 348 438.05 348 409 Q 348 379.95 348 350 L 248 350 L 248 339 L 410 339 Q 472 322.562 472 242 C 472 161.438 440.438 135 390 135 Q 339.563 135 350 135 L 350 68 Q 333.414 2 241 2 C 148.586 2 124 46.011 124 68 Q 124 89.989 124 123 L 227 123 L 227 135 L 227 135 Z  M 349.942 153.762 L 406.942 153.762 Q 451.942 162.095 453.942 240.762 C 455.942 319.428 405.276 318.095 380.942 317.762 Q 356.609 317.428 226.942 317.762 L 226.942 369.762 L 328.942 369.762 L 328.942 399.762 Q 326.609 452.762 240.942 452.762 Q 155.276 452.762 144.942 399.762 L 144.942 278.762 Q 149.276 245.762 177.942 245.762 Q 206.609 245.762 297.942 245.762 Q 349.942 240.095 349.942 193.762 Q 349.942 147.428 349.942 153.762 Z " fill-rule="evenodd" fill="rgb(181,84,0)"/><path d=" M 308.942 399.762 C 308.942 410.8 299.981 419.762 288.942 419.762 C 277.904 419.762 268.942 410.8 268.942 399.762 C 268.942 388.723 277.904 379.762 288.942 379.762 C 299.981 379.762 308.942 388.723 308.942 399.762 Z " fill="rgb(181,84,0)"/></g></svg>