<?xml version="1.0" encoding="UTF-8" standalone="no"?><!-- Generator: Gravit.io --><svg xmlns="http://www.w3.org/2000/svg" xmlns:xlink="http://www.w3.org/1999/xlink" style="isolation:isolate" viewBox="0 0 512 512" width="512pt" height="512pt"><defs><clipPath id="_clipPath_fG4hkkaQT7BfvhVSMOOZgVDWvdCreRfO"><rect width="512" height="512"/></clipPath></defs><g clip-path="url(#_clipPath_fG4hkkaQT7BfvhVSMOOZgVDWvdCreRfO)"><path d=" M 50 0 L 462 0 C 489.596 0 512 22.404 512 50 L 512 462 C 512 489.596 489.596 512 462 512 L 50 512 C 22.404 512 0 489.596 0 462 L 0 50 C 0 22.404 22.404 0 50 0 Z  M 316.939 407.424 L 316.939 457.485 C 325.077 461.657 334.702 464.785 345.814 466.871 C 356.926 468.957 368.637 470 380.949 470 C 392.948 470 404.346 468.853 415.145 466.558 C 425.944 464.264 435.413 460.483 443.551 455.216 C 451.689 449.95 458.132 443.066 462.879 434.566 C 467.626 426.066 470 415.559 470 403.044 C 470 393.97 468.644 386.018 465.931 379.187 C 463.218 372.356 459.306 366.281 454.193 360.962 C 449.081 355.643 442.951 350.871 435.804 346.647 C 428.657 342.423 420.597 338.434 411.624 334.68 C 405.051 331.968 399.156 329.335 393.939 326.78 C 388.722 324.224 384.288 321.617 380.636 318.958 C 376.984 316.298 374.167 313.482 372.185 310.51 C 370.203 307.537 369.211 304.174 369.211 300.419 C 369.211 296.978 370.098 293.875 371.872 291.111 C 373.646 288.347 376.15 285.975 379.384 283.993 C 382.619 282.012 386.583 280.473 391.278 279.378 C 395.974 278.283 401.19 277.736 406.929 277.736 C 411.102 277.736 415.51 278.049 420.153 278.674 C 424.796 279.3 429.465 280.265 434.161 281.568 C 438.856 282.872 443.42 284.515 447.855 286.496 C 452.289 288.478 456.384 290.772 460.14 293.38 L 460.14 246.604 C 452.524 243.684 444.203 241.52 435.178 240.112 C 426.153 238.704 415.797 238 404.112 238 C 392.217 238 380.949 239.278 370.307 241.833 C 359.665 244.388 350.301 248.377 342.214 253.8 C 334.128 259.224 327.738 266.133 323.043 274.529 C 318.348 282.924 316 292.962 316 304.643 C 316 319.557 320.304 332.281 328.912 342.815 C 337.519 353.348 350.587 362.265 368.116 369.566 C 375.002 372.382 381.419 375.145 387.366 377.857 C 393.313 380.569 398.452 383.385 402.781 386.305 C 407.111 389.225 410.528 392.406 413.033 395.848 C 415.537 399.289 416.789 403.2 416.789 407.581 C 416.789 410.814 416.006 413.812 414.441 416.576 C 412.876 419.34 410.502 421.738 407.32 423.772 C 404.138 425.806 400.173 427.396 395.426 428.543 C 390.678 429.691 385.123 430.264 378.758 430.264 C 367.907 430.264 357.161 428.361 346.518 424.554 C 335.876 420.748 326.016 415.038 316.939 407.424 L 316.939 407.424 L 316.939 407.424 Z  M 232.78 284.082 L 297 284.082 L 297 243 L 118 243 L 118 284.082 L 181.906 284.082 L 181.906 467 L 232.78 467 L 232.78 284.082 L 232.78 284.082 Z " fill-rule="evenodd" fill="rgb(181,84,0)"/></g></svg>